<svg width="18" height="18" viewBox="0 0 18 18" fill="none" xmlns="http://www.w3.org/2000/svg">
<path d="M15.2222 6.33333H11.6667V2.77778C11.6662 2.30643 11.4787 1.85451 11.1454 1.52122C10.8122 1.18792 10.3602 1.00047 9.88889 1H8.62489C8.33994 1.00121 8.06487 1.10453 7.84959 1.29122C7.63431 1.4779 7.49309 1.73558 7.45156 2.01748L6.95081 5.52385L4.83111 8.7037H1V17H13.4444C14.5442 16.9987 15.5986 16.5613 16.3762 15.7836C17.1539 15.006 17.5913 13.9516 17.5926 12.8519V8.7037C17.5918 8.07528 17.3418 7.47283 16.8975 7.02847C16.4531 6.5841 15.8506 6.33412 15.2222 6.33333ZM4.55556 15.8148H2.18519V9.88889H4.55556V15.8148ZM16.4074 12.8519C16.4065 13.6374 16.094 14.3905 15.5385 14.9459C14.9831 15.5014 14.23 15.8139 13.4444 15.8148H5.74074V9.47585L8.08622 5.95763L8.62548 2.18519H9.88889C10.0461 2.18519 10.1968 2.24762 10.3079 2.35875C10.419 2.46988 10.4815 2.62061 10.4815 2.77778V7.51852H15.2222C15.5365 7.51883 15.8377 7.6438 16.0599 7.866C16.2821 8.0882 16.4071 8.38947 16.4074 8.7037V12.8519Z" fill="white"/>
</svg>
