<svg width="18" height="18" viewBox="0 0 18 18" fill="none" xmlns="http://www.w3.org/2000/svg">
<path d="M15.2222 6.33333H11.6667V2.77778C11.6662 2.30643 11.4787 1.85451 11.1454 1.52122C10.8122 1.18792 10.3602 1.00047 9.88889 1H8.62489C8.33994 1.00121 8.06487 1.10453 7.84959 1.29122C7.63431 1.4779 7.49309 1.73558 7.45156 2.01748L6.95081 5.52385L4.83111 8.7037H1V17H13.4444C14.5442 16.9987 15.5986 16.5613 16.3762 15.7836C17.1539 15.006 17.5913 13.9516 17.5926 12.8519V8.7037C17.5918 8.07528 17.3418 7.47283 16.8975 7.02846C16.4531 6.5841 15.8506 6.33412 15.2222 6.33333ZM4.55556 15.8148H2.18519V9.88889H4.55556V15.8148Z" fill="#FF862F"/>
</svg>
