<svg width="28" height="28" viewBox="0 0 28 28" fill="none" xmlns="http://www.w3.org/2000/svg">
<g clip-path="url(#clip0_526_37181)">
<path d="M14 23.8C11.4009 23.8 8.90826 22.7675 7.0704 20.9296C5.23255 19.0918 4.20005 16.5991 4.20005 14C4.20005 11.4009 5.23255 8.9082 7.0704 7.07034C8.90826 5.23248 11.4009 4.19999 14 4.19999C16.5992 4.19999 19.0918 5.23248 20.9297 7.07034C22.7676 8.9082 23.8 11.4009 23.8 14C23.8 16.5991 22.7676 19.0918 20.9297 20.9296C19.0918 22.7675 16.5992 23.8 14 23.8ZM14 25.2C16.9705 25.2 19.8192 24.02 21.9196 21.9196C24.0201 19.8192 25.2 16.9704 25.2 14C25.2 11.0296 24.0201 8.1808 21.9196 6.08039C19.8192 3.97998 16.9705 2.79999 14 2.79999C11.0296 2.79999 8.18086 3.97998 6.08045 6.08039C3.98005 8.1808 2.80005 11.0296 2.80005 14C2.80005 16.9704 3.98005 19.8192 6.08045 21.9196C8.18086 24.02 11.0296 25.2 14 25.2Z" fill="#8B8B8B"/>
<path d="M10.157 10.9004C10.1551 10.9456 10.1625 10.9907 10.1786 11.033C10.1948 11.0753 10.2195 11.1138 10.2511 11.1462C10.2827 11.1786 10.3205 11.2042 10.3624 11.2214C10.4043 11.2386 10.4492 11.247 10.4944 11.2462H11.6494C11.8426 11.2462 11.9966 11.088 12.0218 10.8962C12.1478 9.97781 12.7778 9.30861 13.9006 9.30861C14.861 9.30861 15.7402 9.78881 15.7402 10.9438C15.7402 11.8328 15.2166 12.2416 14.3892 12.8632C13.447 13.5478 12.7008 14.3472 12.754 15.645L12.7582 15.9488C12.7597 16.0407 12.7972 16.1283 12.8627 16.1927C12.9282 16.2571 13.0164 16.2932 13.1082 16.2932H14.2436C14.3365 16.2932 14.4255 16.2563 14.4911 16.1907C14.5568 16.1251 14.5936 16.036 14.5936 15.9432V15.7962C14.5936 14.791 14.9758 14.4984 16.0076 13.7158C16.8602 13.0676 17.7492 12.348 17.7492 10.8374C17.7492 8.72201 15.9628 7.70001 14.007 7.70001C12.2332 7.70001 10.29 8.52601 10.157 10.9004ZM12.3368 18.9686C12.3368 19.7148 12.9318 20.2664 13.7508 20.2664C14.6034 20.2664 15.19 19.7148 15.19 18.9686C15.19 18.1958 14.602 17.6526 13.7494 17.6526C12.9318 17.6526 12.3368 18.1958 12.3368 18.9686Z" fill="#8B8B8B"/>
</g>
<defs>
<clipPath id="clip0_526_37181">
<rect width="22.4" height="22.4" fill="white" transform="translate(2.80005 2.79999)"/>
</clipPath>
</defs>
</svg>
