<svg width="25" height="32" viewBox="0 0 25 32" fill="none" xmlns="http://www.w3.org/2000/svg">
<g clip-path="url(#clip0_1465_9303)">
<path d="M5.86133 21.5441C5.86133 21.0775 6.23959 20.6992 6.70621 20.6992H17.7953C18.2619 20.6992 18.6402 21.0775 18.6402 21.5441V30.6111C18.6402 31.2443 17.9694 31.6524 17.4071 31.3615L12.7384 28.9457C12.4983 28.8215 12.2135 28.8196 11.9718 28.9405L7.08443 31.3872C6.52264 31.6685 5.86133 31.26 5.86133 30.6318V21.5441Z" fill="#2560B4"/>
<path fill-rule="evenodd" clip-rule="evenodd" d="M8.22522 20.6992H6.70621C6.23959 20.6992 5.86133 21.0775 5.86133 21.5441V30.6318C5.86133 31.26 6.52264 31.6685 7.08443 31.3872L11.9718 28.9405C12.2135 28.8196 12.4983 28.8215 12.7384 28.9457L17.4071 31.3615C17.8605 31.5961 18.3844 31.3762 18.5704 30.9503L8.22522 20.6992Z" fill="#3572CA"/>
<path fill-rule="evenodd" clip-rule="evenodd" d="M12.3027 28.8571V24.7451L18.5696 30.9549C18.3836 31.3807 17.8596 31.6007 17.4063 31.3661L12.7375 28.9503C12.6016 28.88 12.4513 28.8488 12.3027 28.8571Z" fill="#2C67BA"/>
<path fill-rule="evenodd" clip-rule="evenodd" d="M10.2971 29.8114L7.08443 31.4197C6.52264 31.7009 5.86133 31.2924 5.86133 30.6642V25.4521L10.2971 29.8114Z" fill="#7BADF4"/>
<path d="M12.1978 24.0792C18.8471 24.0792 24.2374 18.6889 24.2374 12.0396C24.2374 5.39031 18.8471 0 12.1978 0C5.54852 0 0.158203 5.39031 0.158203 12.0396C0.158203 18.6889 5.54852 24.0792 12.1978 24.0792Z" fill="#F7E7D3"/>
<path fill-rule="evenodd" clip-rule="evenodd" d="M12.1973 24.0792V0C18.8466 1.66962e-05 24.2369 5.39032 24.2369 12.0396C24.2369 18.6888 18.8466 24.0792 12.1973 24.0792Z" fill="#ECC19A"/>
<path fill-rule="evenodd" clip-rule="evenodd" d="M12.1973 3.28809V20.8195C7.35617 20.8195 3.43164 16.8949 3.43164 12.0538C3.43164 7.21261 7.35617 3.28809 12.1973 3.28809Z" fill="#EBB584"/>
<path fill-rule="evenodd" clip-rule="evenodd" d="M12.1973 20.8195V3.28809C17.0385 3.28809 20.9629 7.21261 20.9629 12.0538C20.9629 16.8949 17.0385 20.8195 12.1973 20.8195Z" fill="#CC9765"/>
<path d="M11.205 6.18663C11.7083 5.45211 12.7923 5.45211 13.2957 6.18663L14.6214 8.12095C14.7861 8.3614 15.0288 8.5377 15.3084 8.62011L17.5578 9.28317C18.4119 9.53495 18.7469 10.5659 18.2038 11.2716L16.7738 13.1301C16.5961 13.3612 16.5034 13.6464 16.5114 13.9378L16.5758 16.282C16.6003 17.172 15.7234 17.8092 14.8844 17.5108L12.675 16.7251C12.4003 16.6275 12.1004 16.6275 11.8257 16.7251L9.61626 17.5108C8.77727 17.8092 7.90031 17.172 7.92479 16.282L7.98927 13.9378C7.99728 13.6464 7.9046 13.3612 7.72683 13.1301L6.29685 11.2716C5.75384 10.5659 6.08881 9.53495 6.94293 9.28317L9.19223 8.62011C9.47184 8.5377 9.71449 8.3614 9.87927 8.12095L11.205 6.18663Z" fill="#F7E7D3"/>
<path opacity="0.7" fill-rule="evenodd" clip-rule="evenodd" d="M15.8281 8.78027L17.5511 9.28819C18.4052 9.53996 18.7402 10.5709 18.1971 11.2766L16.7672 13.1351C16.5894 13.3662 16.4967 13.6515 16.5047 13.9429L16.5693 16.287C16.5936 17.1771 15.7168 17.8142 14.8778 17.5159L12.6683 16.7301C12.3936 16.6325 12.0937 16.6325 11.8191 16.7301L9.60959 17.5159C8.90588 17.7661 8.17547 17.3582 7.97266 16.695L15.8281 8.78027Z" fill="#ECC19A"/>
<path fill-rule="evenodd" clip-rule="evenodd" d="M12.1973 16.6949C12.3563 16.6891 12.5163 16.7131 12.6685 16.7673L14.878 17.5529C15.7169 17.8513 16.5938 17.2142 16.5694 16.3241L16.5049 13.9799C16.4969 13.6886 16.5896 13.4033 16.7674 13.1722L18.1973 11.3137C18.7404 10.608 18.4054 9.57708 17.5513 9.32531L15.8283 8.81738L12.1973 12.4757V16.6949Z" fill="#E0B085"/>
</g>
<defs>
<clipPath id="clip0_1465_9303">
<rect width="24.0792" height="32" fill="white" transform="translate(0.158203)"/>
</clipPath>
</defs>
</svg>
