<svg width="28" height="28" viewBox="0 0 28 28" fill="none" xmlns="http://www.w3.org/2000/svg">
<path fill-rule="evenodd" clip-rule="evenodd" d="M14 25C20.0751 25 25 20.0751 25 14C25 7.92487 20.0751 3 14 3C7.92487 3 3 7.92487 3 14C3 20.0751 7.92487 25 14 25ZM20.6382 11.0282C21.1206 10.5643 21.1206 9.81198 20.6382 9.34799C20.1558 8.884 19.3736 8.884 18.8912 9.34799L11.8382 16.1316L9.10878 13.5064C8.62637 13.0424 7.84422 13.0424 7.36181 13.5064C6.8794 13.9704 6.8794 14.7227 7.36181 15.1867L10.9648 18.652C11.4472 19.116 12.2293 19.116 12.7117 18.652L20.6382 11.0282Z" fill="white"/>
</svg>
