<svg width="28" height="28" viewBox="0 0 28 28" fill="none" xmlns="http://www.w3.org/2000/svg">
<path d="M14 24C19.5228 24 24 19.5228 24 14C24 8.47715 19.5228 4 14 4C8.47715 4 4 8.47715 4 14C4 19.5228 8.47715 24 14 24Z" fill="#EB4852"/>
<path fill-rule="evenodd" clip-rule="evenodd" d="M17.6814 11.5055C18.0231 11.1611 18.0231 10.6027 17.6814 10.2583C17.3397 9.9139 16.7856 9.9139 16.4439 10.2583L14 12.7213L11.5561 10.2583C11.2144 9.9139 10.6603 9.9139 10.3186 10.2583C9.97687 10.6027 9.97687 11.1611 10.3186 11.5055L12.7625 13.9685L10.2563 16.4944C9.91457 16.8388 9.91457 17.3972 10.2563 17.7416C10.598 18.086 11.1521 18.086 11.4938 17.7416L14 15.2158L16.5062 17.7416C16.8479 18.086 17.402 18.086 17.7437 17.7416C18.0854 17.3972 18.0854 16.8388 17.7437 16.4944L15.2375 13.9685L17.6814 11.5055Z" fill="white"/>
</svg>
