<svg width="28" height="28" viewBox="0 0 28 28" fill="none" xmlns="http://www.w3.org/2000/svg">
<path d="M14 24C19.5228 24 24 19.5228 24 14C24 8.47715 19.5228 4 14 4C8.47715 4 4 8.47715 4 14C4 19.5228 8.47715 24 14 24Z" fill="#39D878"/>
<path fill-rule="evenodd" clip-rule="evenodd" d="M18.7077 10.7216C19.0982 11.1121 19.0982 11.7453 18.7077 12.1358L12.8577 17.9858L9.00774 14.1358C8.61721 13.7453 8.61721 13.1121 9.00774 12.7216C9.39826 12.3311 10.0314 12.3311 10.422 12.7216L12.8577 15.1574L17.2935 10.7216C17.684 10.3311 18.3171 10.3311 18.7077 10.7216Z" fill="white"/>
</svg>
