<svg width="24" height="24" viewBox="0 0 24 24" fill="none" xmlns="http://www.w3.org/2000/svg">
<path fill-rule="evenodd" clip-rule="evenodd" d="M9.18209 0.335555C11.543 -0.234803 14.0215 -0.0753045 16.2898 0.79297C18.5582 1.66124 20.5096 3.19742 21.8863 5.19844L20.474 6.17009L21.8863 5.19844C23.263 7.19947 24 9.57115 24 12C24 12.9468 23.2325 13.7143 22.2857 13.7143C21.3389 13.7143 20.5714 12.9468 20.5714 12C20.5714 10.2651 20.045 8.57105 19.0616 7.14174C18.0783 5.71244 16.6844 4.61517 15.0641 3.99498C13.4439 3.37478 11.6736 3.26085 9.98721 3.66825C8.30083 4.07565 6.77777 4.9852 5.61934 6.27667C4.46092 7.56814 3.72166 9.18074 3.49929 10.9013C3.27691 12.6219 3.58188 14.3695 4.3739 15.913C5.16591 17.4566 6.40767 18.7235 7.93506 19.5462C9.46245 20.369 11.2036 20.7089 12.9282 20.521C13.8695 20.4185 14.7156 21.0984 14.8181 22.0396C14.9206 22.9808 14.2407 23.8269 13.2995 23.9294C10.885 24.1924 8.44743 23.7166 6.30909 22.5647C4.17074 21.4128 2.43227 19.6392 1.32345 17.4782C0.214633 15.3173 -0.212329 12.8707 0.0989972 10.4619C0.410324 8.05304 1.44528 5.7954 3.06708 3.98734C4.68888 2.17928 6.82116 0.905913 9.18209 0.335555Z" fill="white"/>
</svg>
