<svg width="25" height="32" viewBox="0 0 25 32" fill="none" xmlns="http://www.w3.org/2000/svg">
<g clip-path="url(#clip0_1465_9304)">
<path d="M5.7832 21.5441C5.7832 21.0775 6.16147 20.6992 6.62809 20.6992H17.7172C18.1838 20.6992 18.5621 21.0775 18.5621 21.5441V30.6111C18.5621 31.2443 17.8912 31.6524 17.329 31.3615L12.6602 28.9457C12.4202 28.8215 12.1354 28.8196 11.8937 28.9405L7.0063 31.3872C6.44452 31.6685 5.7832 31.26 5.7832 30.6318V21.5441Z" fill="#2560B4"/>
<path fill-rule="evenodd" clip-rule="evenodd" d="M8.1471 20.6992H6.62809C6.16147 20.6992 5.7832 21.0775 5.7832 21.5441V30.6318C5.7832 31.26 6.44452 31.6685 7.0063 31.3872L11.8937 28.9405C12.1354 28.8196 12.4202 28.8215 12.6602 28.9457L17.329 31.3615C17.7824 31.5961 18.3063 31.3762 18.4923 30.9503L8.1471 20.6992Z" fill="#3572CA"/>
<path fill-rule="evenodd" clip-rule="evenodd" d="M12.2246 28.8571V24.7451L18.4914 30.9549C18.3055 31.3807 17.7815 31.6007 17.3281 31.3661L12.6594 28.9503C12.5235 28.88 12.3732 28.8488 12.2246 28.8571Z" fill="#2C67BA"/>
<path fill-rule="evenodd" clip-rule="evenodd" d="M10.2189 29.8114L7.0063 31.4197C6.44452 31.7009 5.7832 31.2924 5.7832 30.6642V25.4521L10.2189 29.8114Z" fill="#7BADF4"/>
<path d="M12.1197 24.0792C18.769 24.0792 24.1593 18.6889 24.1593 12.0396C24.1593 5.39031 18.769 0 12.1197 0C5.47039 0 0.0800781 5.39031 0.0800781 12.0396C0.0800781 18.6889 5.47039 24.0792 12.1197 24.0792Z" fill="#F4FAF9"/>
<path fill-rule="evenodd" clip-rule="evenodd" d="M12.1191 24.0792V0C18.7685 1.66962e-05 24.1587 5.39032 24.1587 12.0396C24.1587 18.6888 18.7685 24.0792 12.1191 24.0792Z" fill="#DEE5E8"/>
<path fill-rule="evenodd" clip-rule="evenodd" d="M12.1192 3.28809V20.8195C7.27805 20.8195 3.35352 16.8949 3.35352 12.0538C3.35352 7.21261 7.27805 3.28809 12.1192 3.28809Z" fill="#D2DEE9"/>
<path fill-rule="evenodd" clip-rule="evenodd" d="M12.1191 20.8195V3.28809C16.9603 3.28809 20.8848 7.21261 20.8848 12.0538C20.8848 16.8949 16.9603 20.8195 12.1191 20.8195Z" fill="#94A7BA"/>
<path d="M11.1269 6.18663C11.6302 5.45211 12.7142 5.45211 13.2175 6.18663L14.5433 8.12095C14.708 8.3614 14.9507 8.5377 15.2303 8.62011L17.4797 9.28317C18.3337 9.53495 18.6687 10.5659 18.1257 11.2716L16.6957 13.1301C16.518 13.3612 16.4253 13.6464 16.4333 13.9378L16.4977 16.282C16.5222 17.172 15.6453 17.8092 14.8062 17.5108L12.5969 16.7251C12.3222 16.6275 12.0222 16.6275 11.7475 16.7251L9.53814 17.5108C8.69914 17.8092 7.82219 17.172 7.84667 16.282L7.91114 13.9378C7.91916 13.6464 7.82647 13.3612 7.64871 13.1301L6.21872 11.2716C5.67571 10.5659 6.01069 9.53495 6.8648 9.28317L9.11411 8.62011C9.39371 8.5377 9.63636 8.3614 9.80115 8.12095L11.1269 6.18663Z" fill="#F5F9FD"/>
<path opacity="0.7" fill-rule="evenodd" clip-rule="evenodd" d="M15.75 8.78027L17.473 9.28819C18.3271 9.53996 18.6621 10.5709 18.119 11.2766L16.689 13.1351C16.5113 13.3662 16.4186 13.6515 16.4266 13.9429L16.4911 16.287C16.5155 17.1771 15.6386 17.8142 14.7997 17.5159L12.5902 16.7301C12.3155 16.6325 12.0156 16.6325 11.741 16.7301L9.53146 17.5159C8.82776 17.7661 8.09735 17.3582 7.89453 16.695L15.75 8.78027Z" fill="#9FB8D0"/>
<path fill-rule="evenodd" clip-rule="evenodd" d="M12.1191 16.6949C12.2782 16.6891 12.4382 16.7131 12.5904 16.7673L14.7999 17.5529C15.6388 17.8513 16.5157 17.2142 16.4913 16.3241L16.4268 13.9799C16.4188 13.6886 16.5115 13.4033 16.6892 13.1722L18.1192 11.3137C18.6622 10.608 18.3272 9.57708 17.4732 9.32531L15.7501 8.81738L12.1191 12.4757V16.6949Z" fill="#AFBDC8"/>
</g>
<defs>
<clipPath id="clip0_1465_9304">
<rect width="24.0792" height="32" fill="white" transform="translate(0.0800781)"/>
</clipPath>
</defs>
</svg>
