<svg width="28" height="28" viewBox="0 0 28 28" fill="none" xmlns="http://www.w3.org/2000/svg">
<path fill-rule="evenodd" clip-rule="evenodd" d="M14.0013 5.91732C9.44495 5.91732 5.7513 9.61097 5.7513 14.1673C5.7513 18.7237 9.44495 22.4173 14.0013 22.4173C18.5577 22.4173 22.2513 18.7237 22.2513 14.1673C22.2513 9.61097 18.5577 5.91732 14.0013 5.91732ZM3.91797 14.1673C3.91797 8.59845 8.43243 4.08398 14.0013 4.08398C19.5702 4.08398 24.0846 8.59845 24.0846 14.1673C24.0846 19.7362 19.5702 24.2507 14.0013 24.2507C8.43243 24.2507 3.91797 19.7362 3.91797 14.1673Z" fill="white"/>
<path fill-rule="evenodd" clip-rule="evenodd" d="M14.0007 7.58398C14.5069 7.58398 14.9173 7.99439 14.9173 8.50065V13.4341L18.0773 15.0141C18.5301 15.2405 18.7136 15.7911 18.4872 16.2439C18.2608 16.6967 17.7102 16.8803 17.2574 16.6539L13.5907 14.8205C13.2802 14.6653 13.084 14.3479 13.084 14.0007V8.50065C13.084 7.99439 13.4944 7.58398 14.0007 7.58398Z" fill="white"/>
</svg>
