<svg width="24" height="24" viewBox="0 0 24 24" fill="none" xmlns="http://www.w3.org/2000/svg">
<path fill-rule="evenodd" clip-rule="evenodd" d="M12 23C18.0751 23 23 18.0751 23 12C23 5.92487 18.0751 1 12 1C5.92487 1 1 5.92487 1 12C1 18.0751 5.92487 23 12 23ZM18.6382 9.02825C19.1206 8.56426 19.1206 7.81198 18.6382 7.34799C18.1558 6.884 17.3736 6.884 16.8912 7.34799L9.83823 14.1316L7.10878 11.5064C6.62637 11.0424 5.84422 11.0424 5.36181 11.5064C4.8794 11.9704 4.8794 12.7227 5.36181 13.1867L8.96475 16.652C9.44716 17.116 10.2293 17.116 10.7117 16.652L18.6382 9.02825Z" fill="white"/>
</svg>
