<svg width="28" height="28" viewBox="0 0 28 28" fill="none" xmlns="http://www.w3.org/2000/svg">
<path fill-rule="evenodd" clip-rule="evenodd" d="M22.71 9.3C22.81 9.39 22.88 9.5 22.93 9.62L22.92 9.61C22.97 9.74 23 9.87 23 10V22C23 22.79 22.68 23.56 22.12 24.12C21.56 24.68 20.8 25 20 25H8C7.21 25 6.44 24.68 5.88 24.12C5.32 23.56 5 22.8 5 22V6C5 5.21 5.32 4.44 5.88 3.88C6.44 3.32 7.2 3 8 3H16C16.14 3 16.27 3.03 16.39 3.08C16.51 3.14 16.62 3.21 16.71 3.3L22.71 9.3ZM19.6 9.01L17.01 6.42V9.01H19.6ZM20.01 23C20.28 23 20.53 22.9 20.72 22.71V22.72C20.9 22.53 21.01 22.28 21.01 22.01V11.01H16.01C15.46 11.01 15.01 10.56 15.01 10.01V5.01H8.01C7.74 5.01 7.49 5.11 7.3 5.3C7.12 5.49 7.01 5.74 7.01 6.01V22C7.01 22.27 7.11 22.52 7.3 22.71C7.49 22.89 7.74 23 8.01 23H20.01Z" fill="white"/>
</svg>
