<svg width="25" height="32" viewBox="0 0 25 32" fill="none" xmlns="http://www.w3.org/2000/svg">
<g clip-path="url(#clip0_1465_9305)">
<path d="M5.70312 21.5441C5.70312 21.0775 6.08139 20.6992 6.54801 20.6992H17.6371C18.1037 20.6992 18.482 21.0775 18.482 21.5441V30.6111C18.482 31.2443 17.8112 31.6524 17.2488 31.3615L12.5802 28.9457C12.3401 28.8215 12.0553 28.8196 11.8136 28.9405L6.92622 31.3872C6.36444 31.6685 5.70312 31.26 5.70312 30.6318V21.5441Z" fill="#2560B4"/>
<path fill-rule="evenodd" clip-rule="evenodd" d="M8.06702 20.6992H6.54801C6.08139 20.6992 5.70312 21.0775 5.70312 21.5441V30.6318C5.70312 31.26 6.36444 31.6685 6.92622 31.3872L11.8136 28.9405C12.0553 28.8196 12.3401 28.8215 12.5802 28.9457L17.2489 31.3615C17.7023 31.5961 18.2262 31.3762 18.4122 30.9503L8.06702 20.6992Z" fill="#3572CA"/>
<path fill-rule="evenodd" clip-rule="evenodd" d="M12.1445 28.8571V24.7451L18.4114 30.9549C18.2254 31.3807 17.7014 31.6007 17.2481 31.3661L12.5793 28.9503C12.4434 28.88 12.2931 28.8488 12.1445 28.8571Z" fill="#2C67BA"/>
<path fill-rule="evenodd" clip-rule="evenodd" d="M10.1389 29.8114L6.92622 31.4197C6.36444 31.7009 5.70312 31.2924 5.70312 30.6642V25.4521L10.1389 29.8114Z" fill="#7BADF4"/>
<path d="M12.0396 24.0792C18.6889 24.0792 24.0792 18.6889 24.0792 12.0396C24.0792 5.39031 18.6889 0 12.0396 0C5.39031 0 0 5.39031 0 12.0396C0 18.6889 5.39031 24.0792 12.0396 24.0792Z" fill="#FFE68B"/>
<path fill-rule="evenodd" clip-rule="evenodd" d="M12.0391 24.0792V0C18.6884 1.66962e-05 24.0787 5.39032 24.0787 12.0396C24.0787 18.6888 18.6884 24.0792 12.0391 24.0792Z" fill="#FFD744"/>
<path fill-rule="evenodd" clip-rule="evenodd" d="M12.0391 3.28809V20.8195C7.19797 20.8195 3.27344 16.8949 3.27344 12.0538C3.27344 7.21261 7.19797 3.28809 12.0391 3.28809Z" fill="#FFAB40"/>
<path fill-rule="evenodd" clip-rule="evenodd" d="M12.0391 20.8195V3.28809C16.8803 3.28809 20.8047 7.21261 20.8047 12.0538C20.8047 16.8949 16.8803 20.8195 12.0391 20.8195Z" fill="#FF862F"/>
<path d="M11.0468 6.18663C11.5501 5.45211 12.6341 5.45211 13.1375 6.18663L14.4632 8.12095C14.6279 8.3614 14.8706 8.5377 15.1502 8.62011L17.3996 9.28317C18.2537 9.53494 18.5887 10.5659 18.0456 11.2716L16.6156 13.1301C16.4379 13.3612 16.3452 13.6464 16.3532 13.9378L16.4176 16.282C16.4421 17.172 15.5652 17.8092 14.7262 17.5108L12.5168 16.7251C12.2421 16.6275 11.9422 16.6275 11.6675 16.7251L9.45806 17.5108C8.61907 17.8092 7.74211 17.172 7.76659 16.282L7.83106 13.9378C7.83908 13.6464 7.74639 13.3612 7.56863 13.1301L6.13864 11.2716C5.59564 10.5659 5.93061 9.53494 6.78473 9.28317L9.03403 8.62011C9.31363 8.5377 9.55629 8.3614 9.72107 8.12095L11.0468 6.18663Z" fill="#FFEDAB"/>
<path opacity="0.7" fill-rule="evenodd" clip-rule="evenodd" d="M15.6699 8.78027L17.3929 9.28819C18.247 9.53996 18.582 10.5709 18.0389 11.2766L16.609 13.1351C16.4312 13.3662 16.3385 13.6515 16.3465 13.9429L16.411 16.287C16.4354 17.1771 15.5586 17.8142 14.7196 17.5159L12.5101 16.7301C12.2354 16.6325 11.9355 16.6325 11.6609 16.7301L9.45139 17.5159C8.74768 17.7661 8.01727 17.3582 7.81445 16.695L15.6699 8.78027Z" fill="#FFCC5F"/>
<path fill-rule="evenodd" clip-rule="evenodd" d="M12.0391 16.6949C12.1981 16.6891 12.3581 16.7131 12.5103 16.7673L14.7198 17.5529C15.5587 17.8513 16.4356 17.2142 16.4112 16.3241L16.3467 13.9799C16.3387 13.6886 16.4314 13.4033 16.6091 13.1722L18.0391 11.3137C18.5822 10.608 18.2472 9.57708 17.3931 9.32531L15.6701 8.81738L12.0391 12.4757V16.6949Z" fill="#FFCC5F"/>
</g>
<defs>
<clipPath id="clip0_1465_9305">
<rect width="24.0792" height="32" fill="white"/>
</clipPath>
</defs>
</svg>
