<svg width="28" height="28" viewBox="0 0 28 28" fill="none" xmlns="http://www.w3.org/2000/svg">
<path d="M16.6996 9.5H19.3996C19.9906 9.5 20.5757 9.6164 21.1217 9.84254C21.6676 10.0687 22.1637 10.4002 22.5816 10.818C22.9995 11.2359 23.3309 11.732 23.5571 12.2779C23.7832 12.8239 23.8996 13.4091 23.8996 14C23.8996 14.5909 23.7832 15.1761 23.5571 15.7221C23.3309 16.268 22.9995 16.7641 22.5816 17.182C22.1637 17.5998 21.6676 17.9313 21.1217 18.1575C20.5757 18.3836 19.9906 18.5 19.3996 18.5H16.6996M11.2996 18.5H8.59961C8.00866 18.5 7.4235 18.3836 6.87753 18.1575C6.33157 17.9313 5.83549 17.5998 5.41763 17.182C4.57372 16.3381 4.09961 15.1935 4.09961 14C4.09961 12.8065 4.57372 11.6619 5.41763 10.818C6.26154 9.97411 7.40613 9.5 8.59961 9.5H11.2996" stroke="white" stroke-width="2" stroke-linecap="round" stroke-linejoin="round"/>
<path d="M10.4023 14H17.6023" stroke="white" stroke-width="2" stroke-linecap="round" stroke-linejoin="round"/>
</svg>
